<svg id="Artwork" xmlns="http://www.w3.org/2000/svg" xmlns:xlink="http://www.w3.org/1999/xlink" viewBox="0 0 124.08 26.79"><defs><style>.cls-1,.cls-3{fill:#fff;}.cls-2,.cls-3{fill-rule:evenodd;}.cls-2{fill:url(#名称未設定グラデーション);}</style><linearGradient id="名称未設定グラデーション" x1="12.58" y1="-579.18" x2="12.58" y2="-554.65" gradientTransform="matrix(1, 0, 0, -1, 0, -554.11)" gradientUnits="userSpaceOnUse"><stop offset="0" stop-color="#fa233b"/><stop offset="1" stop-color="#fb5c74"/></linearGradient></defs><path class="cls-1" d="M38.17,20.42H33.43l-1.14,3.36h-2l4.49-12.43h2.08l4.49,12.43h-2Zm-4.25-1.55h3.76l-1.85-5.45h0Z" transform="translate(0 0)"/><path class="cls-1" d="M51,19.25c0,2.82-1.51,4.63-3.78,4.63A3.08,3.08,0,0,1,44.4,22.3h0v4.49H42.5V14.72h1.8v1.51h0a3.22,3.22,0,0,1,2.89-1.6C49.51,14.62,51,16.44,51,19.25Zm-1.92,0c0-1.83-1-3-2.39-3s-2.38,1.23-2.38,3,1,3.05,2.38,3.05S49.11,21.1,49.11,19.25Z" transform="translate(0 0)"/><path class="cls-1" d="M61,19.25c0,2.82-1.51,4.63-3.78,4.63a3.08,3.08,0,0,1-2.85-1.58h0v4.49H52.46V14.72h1.8v1.51h0a3.22,3.22,0,0,1,2.89-1.6C59.47,14.62,61,16.44,61,19.25Zm-1.91,0c0-1.83-.95-3-2.39-3s-2.38,1.23-2.38,3,1,3.05,2.38,3.05S59.08,21.1,59.08,19.25Z" transform="translate(0 0)"/><path class="cls-1" d="M62.49,11.35h1.86V23.78H62.49Z" transform="translate(0 0)"/><path class="cls-1" d="M74,21.12c-.25,1.64-1.85,2.77-3.9,2.77-2.64,0-4.27-1.77-4.27-4.6s1.65-4.69,4.19-4.69,4.08,1.72,4.08,4.47v.64h-6.4v.11a2.36,2.36,0,0,0,2.44,2.57,2.05,2.05,0,0,0,2.09-1.27Zm-6.29-2.71h4.53a2.18,2.18,0,0,0-2.22-2.3A2.3,2.3,0,0,0,67.74,18.41Z" transform="translate(0 0)"/><path class="cls-1" d="M90.18,23.78V14.63h-.06l-3.75,9H84.94l-3.76-9h-.06v9.15H79.36V11.35h2.23l4,9.81h.07l4-9.81h2.24V23.78Z" transform="translate(0 0)"/><path class="cls-1" d="M101.85,23.78h-1.78V22.22h0a2.83,2.83,0,0,1-2.81,1.66A3,3,0,0,1,94,20.53V14.72H95.9v5.45c0,1.38.65,2.11,1.94,2.11A2.1,2.1,0,0,0,100,19.94V14.72h1.86Z" transform="translate(0 0)"/><path class="cls-1" d="M107.14,14.62c2,0,3.45,1.11,3.49,2.71h-1.75c-.08-.8-.76-1.29-1.79-1.29s-1.68.47-1.68,1.17c0,.54.45.9,1.39,1.14l1.52.35c1.83.44,2.51,1.11,2.51,2.44,0,1.64-1.55,2.76-3.76,2.76s-3.57-1.09-3.71-2.75h1.84c.13.87.83,1.34,2,1.34S109,22,109,21.31c0-.56-.34-.86-1.29-1.1l-1.62-.4q-2.46-.6-2.46-2.49C103.59,15.71,105,14.62,107.14,14.62Z" transform="translate(0 0)"/><path class="cls-1" d="M112.28,12.33a1.09,1.09,0,1,1,1.08,1.06A1.07,1.07,0,0,1,112.28,12.33Zm.15,2.39h1.86v9.06h-1.86Z" transform="translate(0 0)"/><path class="cls-1" d="M122.3,17.84a2,2,0,0,0-2.14-1.67c-1.43,0-2.38,1.2-2.38,3.08s1,3.09,2.39,3.09a2,2,0,0,0,2.12-1.63h1.79a3.63,3.63,0,0,1-3.93,3.18c-2.58,0-4.27-1.77-4.27-4.64s1.69-4.64,4.25-4.64a3.64,3.64,0,0,1,3.93,3.23Z" transform="translate(0 0)"/><path class="cls-1" d="M34.65,7.54H30.87V1.48h.94V6.67h2.84Z" transform="translate(0 0)"/><path class="cls-1" d="M35.74,1.61a.56.56,0,0,1,.58-.55.55.55,0,0,1,.58.55.56.56,0,0,1-.58.55A.55.55,0,0,1,35.74,1.61ZM35.88,3h.9V7.54h-.9Z" transform="translate(0 0)"/><path class="cls-1" d="M39.9,2.88c1,0,1.7.48,1.79,1.28h-.86c-.08-.34-.41-.55-.92-.55s-.88.24-.88.6.23.45.73.56l.76.18c.87.2,1.28.58,1.28,1.25,0,.86-.8,1.44-1.89,1.44s-1.8-.49-1.88-1.3h.9c.11.35.45.57,1,.57s1-.25,1-.62-.21-.45-.67-.56l-.8-.18c-.87-.21-1.27-.6-1.27-1.28S38.86,2.88,39.9,2.88Z" transform="translate(0 0)"/><path class="cls-1" d="M44.17,1.83V3h1v.76h-1V6.1c0,.48.2.69.65.69l.34,0v.75a2.54,2.54,0,0,1-.49.05c-1,0-1.4-.35-1.4-1.23V3.75h-.73V3h.73V1.83Z" transform="translate(0 0)"/><path class="cls-1" d="M50.16,6.3a1.86,1.86,0,0,1-2,1.32,2.08,2.08,0,0,1-2.11-2.36,2.11,2.11,0,0,1,2.11-2.39c1.27,0,2,.87,2,2.3V5.5H47v0a1.21,1.21,0,0,0,1.22,1.31,1.11,1.11,0,0,0,1.09-.55ZM47,4.83H49.3a1.1,1.1,0,0,0-1.12-1.18A1.18,1.18,0,0,0,47,4.83Z" transform="translate(0 0)"/><path class="cls-1" d="M51.42,3h.87V3.7h.07a1.35,1.35,0,0,1,1.36-.81,1.48,1.48,0,0,1,1.58,1.7v3h-.9V4.8c0-.73-.32-1.1-1-1.1a1,1,0,0,0-1.09,1.16V7.53h-.9Z" transform="translate(0 0)"/><path class="cls-1" d="M58.94,5.25a2.16,2.16,0,1,1,4.31,0,2.17,2.17,0,1,1-4.31,0Zm3.38,0c0-1-.45-1.57-1.23-1.57s-1.23.58-1.23,1.57.44,1.57,1.23,1.57S62.32,6.24,62.32,5.25Z" transform="translate(0 0)"/><path class="cls-1" d="M64.46,3h.87V3.7h.07a1.35,1.35,0,0,1,1.36-.81,1.48,1.48,0,0,1,1.58,1.7v3h-.9V4.8c0-.73-.32-1.1-1-1.1a1,1,0,0,0-1.09,1.16V7.53h-.9Z" transform="translate(0 0)"/><path class="cls-2" d="M25.16,7.87V7c0-.25,0-.51,0-.76A10.12,10.12,0,0,0,25,4.56,5.47,5.47,0,0,0,24.48,3a5.33,5.33,0,0,0-1-1.34,5.16,5.16,0,0,0-1.34-1A5.47,5.47,0,0,0,20.6.16,11.5,11.5,0,0,0,19,0H6.21A11.37,11.37,0,0,0,4.56.16,5.37,5.37,0,0,0,3,.68,5.23,5.23,0,0,0,.68,3,5.37,5.37,0,0,0,.16,4.56,11.5,11.5,0,0,0,0,6.21C0,6.46,0,6.72,0,7V18.19c0,.25,0,.51,0,.76A10.12,10.12,0,0,0,.16,20.6a5.47,5.47,0,0,0,.52,1.57,5.33,5.33,0,0,0,1,1.34,5.16,5.16,0,0,0,1.34,1A5.09,5.09,0,0,0,4.56,25a11.5,11.5,0,0,0,1.65.15H19A10.12,10.12,0,0,0,20.6,25a5.47,5.47,0,0,0,1.57-.52,5.33,5.33,0,0,0,1.34-1,5.16,5.16,0,0,0,1-1.34A5.47,5.47,0,0,0,25,20.6,11.5,11.5,0,0,0,25.15,19c0-.25,0-.51,0-.76V7.87Z" transform="translate(0 0)"/><g id="Glyph"><path class="cls-3" d="M17.79,3.84,17.12,4,9.64,5.47h0a1,1,0,0,0-.47.21.78.78,0,0,0-.25.48s0,.13,0,.26v9.36a.89.89,0,0,1-.17.61.84.84,0,0,1-.55.28l-.49.1a8,8,0,0,0-1.38.35,2.36,2.36,0,0,0-.82.52A2,2,0,0,0,5,19.2a1.94,1.94,0,0,0,1.53,1.72,3.21,3.21,0,0,0,1.35-.07,2.68,2.68,0,0,0,.87-.32,2.22,2.22,0,0,0,.69-.64A2.44,2.44,0,0,0,9.79,19a4.18,4.18,0,0,0,.08-.93V10c0-.44.12-.55.47-.63L16.85,8c.4-.08.6,0,.6.46V14a.9.9,0,0,1-.15.62.84.84,0,0,1-.55.28l-.49.1a8,8,0,0,0-1.38.35,2.36,2.36,0,0,0-.82.52,2,2,0,0,0-.54,1.56,2,2,0,0,0,.64,1.25,1.88,1.88,0,0,0,.91.46,3.21,3.21,0,0,0,1.35-.07,2.47,2.47,0,0,0,.87-.32,2.22,2.22,0,0,0,.69-.64,2.44,2.44,0,0,0,.37-.86,4.17,4.17,0,0,0,.07-.93V4.51C18.42,4.07,18.19,3.81,17.79,3.84Z" transform="translate(0 0)"/></g></svg>